Coordinates
version=1
nRows=23
nColumns=30
inDegrees=yes

Units are S.I. units (second, meters, Newtons, ...)
Angles are in degrees.

endheader
time	floatyaw	floatroll	floatpitch	floatx	floaty	floatz	pro_sup_l	deviation_l	flexion_l	cmc_flexion_l	cmc_abduction_l	mp_flexion_l	ip_flexion_l	2mcp_flexion_l	2mcp_abduction_l	2pm_flexion_l	2md_flexion_l	3mcp_flexion_l	3mcp_abduction_l	3pm_flexion_l	3md_flexion_l	4mcp_flexion_l	4mcp_abduction_l	4pm_flexion_l	4md_flexion_l	5mcp_flexion_l	5mcp_abduction_l	5pm_flexion_l	5md_flexion_l
-0.495000	-160.147433	-5.066637	-73.570646	0.081308	-0.181513	-0.015506	100.953611	4.263855	0.772785	16.262398	11.138515	-25.737281	-42.778565	27.682580	6.704057	43.226403	29.410030	23.056800	3.866649	43.179319	28.058519	11.916657	-4.232007	50.744454	34.397291	0.414140	-7.546705	59.055983	40.736454
-0.485000	-160.147433	-5.066637	-73.570646	0.081272	-0.181382	-0.015555	101.056052	4.270861	0.864467	16.284994	11.139884	-25.733948	-42.771606	27.586426	6.697399	43.267454	29.450026	22.979529	3.861725	43.211317	28.079070	11.882659	-4.229831	50.730418	34.387390	0.399274	-7.544950	59.058650	40.731074
-0.475000	-160.147433	-5.066637	-73.570646	0.081223	-0.181218	-0.015619	101.168406	4.282396	0.973308	16.323868	11.142325	-25.724255	-42.751886	27.514463	6.681050	43.291773	29.479991	22.913937	3.856487	43.219467	28.090290	11.860011	-4.229420	50.699721	34.368668	0.384614	-7.533931	59.039729	40.717307
-0.465000	-160.147433	-5.066637	-73.570646	0.081158	-0.181025	-0.015703	101.283973	4.302740	1.084385	16.375489	11.143964	-25.715632	-42.731572	27.496157	6.655705	43.295492	29.491096	22.875852	3.851175	43.201401	28.087784	11.854801	-4.231152	50.657635	34.341220	0.368846	-7.514620	59.008456	40.697413
-0.455000	-160.147433	-5.066637	-73.570646	0.081071	-0.180813	-0.015810	101.395810	4.337525	1.179693	16.430509	11.142292	-25.714259	-42.720483	27.548661	6.624916	43.279208	29.478789	22.876412	3.846990	43.159285	28.069603	11.869574	-4.234275	50.612908	34.308850	0.352536	-7.492134	58.980308	40.677238
-0.445000	-160.147433	-5.066637	-73.570646	0.080960	-0.180587	-0.015941	101.496560	4.391578	1.242232	16.474998	11.134715	-25.720681	-42.718799	27.669035	6.593572	43.247624	29.445020	22.920360	3.845411	43.097093	28.036475	11.904031	-4.237028	50.573677	34.278684	0.339609	-7.473343	58.969404	40.663984
-0.435000	-160.147433	-5.066637	-73.570646	0.080823	-0.180354	-0.016094	101.579271	4.466149	1.259854	16.493784	11.119821	-25.728870	-42.715172	27.834057	6.565823	43.207966	29.398198	23.006920	3.846932	43.018138	27.991382	11.957055	-4.237215	50.543054	34.259029	0.337456	-7.463061	58.980998	40.663254
-0.425000	-160.147433	-5.066637	-73.570646	0.080659	-0.180117	-0.016273	101.640433	4.557212	1.227624	16.475192	11.099076	-25.730055	-42.693119	28.008663	6.543617	43.167592	29.350193	23.130992	3.850205	42.925397	27.939100	12.028343	-4.233144	50.517140	34.256092	0.355869	-7.461286	59.007395	40.676139
-0.415000	-160.147433	-5.066637	-73.570646	0.080467	-0.179876	-0.016485	101.685050	4.656436	1.148233	16.415809	11.078840	-25.719327	-42.643210	28.158925	6.526533	43.132340	29.311771	23.282020	3.852369	42.825437	27.886365	12.118039	-4.224614	50.486976	34.270865	0.405047	-7.463351	59.029193	40.697388
-0.405000	-160.147433	-5.066637	-73.570646	0.080243	-0.179620	-0.016749	101.732036	4.755147	1.031181	16.323531	11.072390	-25.700995	-42.574137	28.262203	6.512751	43.106761	29.289062	23.440612	3.850447	42.733118	27.842280	12.224455	-4.213404	50.443162	34.297530	0.492385	-7.462806	59.022150	40.716161
-0.395000	-160.147433	-5.066637	-73.570646	0.079973	-0.179327	-0.017089	101.817096	4.849862	0.891954	16.217484	11.100342	-25.689062	-42.515259	28.309186	6.500455	43.095445	29.282770	23.577036	3.842881	42.671458	27.817270	12.342111	-4.202791	50.379755	34.324251	0.618217	-7.454940	58.967777	40.720246
-0.385000	-160.147433	-5.066637	-73.570646	0.079638	-0.178960	-0.017536	101.989864	4.946814	0.751803	16.124307	11.186956	-25.701732	-42.507327	28.299042	6.488915	43.103699	29.289973	23.656783	3.830323	42.662883	27.819127	12.462886	-4.196281	50.294975	34.336502	0.772260	-7.438583	58.863303	40.702435
-0.375000	-160.147433	-5.066637	-73.570646	0.079203	-0.178466	-0.018123	102.302929	5.062900	0.637396	16.071303	11.351143	-25.752056	-42.584542	28.234118	6.478789	43.137248	29.307189	23.654090	3.815453	42.715187	27.847412	12.580499	-4.196266	50.189860	34.322172	0.933307	-7.415279	58.725929	40.665474
-0.365000	-160.147433	-5.066637	-73.570646	0.078630	-0.177784	-0.018882	102.793521	5.222218	0.578194	16.077903	11.594769	-25.839014	-42.756001	28.119857	6.471660	43.202609	29.333495	23.567562	3.802069	42.812555	27.890549	12.694752	-4.203246	50.068709	34.276874	1.073699	-7.386815	58.588798	40.622144
-0.355000	-160.147433	-5.066637	-73.570646	0.077873	-0.176859	-0.019839	103.463561	5.450252	0.598891	16.147984	11.894521	-25.943496	-42.995400	27.969793	6.469118	43.309016	29.372554	23.428407	3.793780	42.921439	27.929746	12.811398	-4.215498	49.943045	34.207189	1.167998	-7.353360	58.491184	40.590129
-0.345000	-160.147433	-5.066637	-73.570646	0.076889	-0.175654	-0.021016	104.267288	5.769597	0.706278	16.266154	12.204169	-26.031859	-43.244420	27.809709	6.471791	43.469474	29.432137	23.294610	3.792732	43.010391	27.948979	12.937537	-4.228772	49.835136	34.129535	1.203244	-7.314137	58.468369	40.584775
-0.335000	-160.147433	-5.066637	-73.570646	0.075633	-0.174157	-0.022431	105.113852	6.199938	0.874696	16.399923	12.469560	-26.066563	-43.429213	27.674172	6.478631	43.696679	29.520133	23.232094	3.798882	43.069926	27.944269	13.077058	-4.236136	49.774021	34.063873	1.186845	-7.270359	58.543911	40.613297
-0.325000	-160.147433	-5.066637	-73.570646	0.074056	-0.172371	-0.024098	105.885820	6.761173	1.038546	16.506737	12.650931	-26.019967	-43.483185	27.593915	6.486602	43.992292	29.637776	23.291613	3.810064	43.115225	27.924165	13.231131	-4.228758	49.780571	34.024138	1.148391	-7.227763	58.721660	40.671517
-0.315000	-160.147433	-5.066637	-73.570646	0.072097	-0.170298	-0.026038	106.467858	7.475751	1.099533	16.542519	12.741080	-25.885248	-43.366457	27.580487	6.490975	44.333602	29.772883	23.492627	3.822625	43.166235	27.899321	13.404963	-4.198205	49.846107	34.009378	1.134289	-7.196020	58.974607	40.742326
-0.305000	-160.147433	-5.066637	-73.570646	0.069685	-0.167916	-0.028275	106.776844	8.367069	0.949015	16.468761	12.769347	-25.679699	-43.075743	27.618360	6.486489	44.665884	29.896931	23.820827	3.832324	43.218173	27.868049	13.616870	-4.139892	49.916076	34.000001	1.197368	-7.185076	59.235093	40.796128
-0.295000	-160.147433	-5.066637	-73.570646	0.066752	-0.165167	-0.030840	106.785559	9.454443	0.496476	16.257966	12.790785	-25.439763	-42.646316	27.670301	6.469226	44.908513	29.969252	24.237162	3.835494	43.225683	27.809509	13.901826	-4.056362	49.892327	33.962484	1.384825	-7.201269	59.398919	40.795851
-0.285000	-160.147433	-5.066637	-73.570646	0.063250	-0.161965	-0.033753	106.534701	10.748354	-0.309298	15.899419	12.871051	-25.210381	-42.152417	27.692528	6.437989	44.977496	29.949184	24.689609	3.830389	43.117534	27.692587	14.301635	-3.958565	49.661995	33.863384	1.726407	-7.245939	59.353970	40.708829
-0.275000	-160.147433	-5.066637	-73.570646	0.059164	-0.158224	-0.037014	106.130789	12.249546	-1.475889	15.406713	13.081006	-25.030642	-41.706892	27.649508	6.393566	44.818618	29.813287	25.119634	3.817987	42.839012	27.498265	14.840448	-3.863506	49.147281	33.688782	2.223461	-7.316208	59.028695	40.523249
